<svg width="407" height="43" viewBox="0 0 407 43" fill="none" xmlns="http://www.w3.org/2000/svg">
<path d="M5 17.5C60.3333 33.1667 217.2 55.1 402 17.5" stroke="black" stroke-width="9" stroke-linecap="round"/>
<path d="M140.912 18.1131C140.158 18.1131 139.479 17.9838 138.876 17.7253C138.273 17.456 137.799 17.079 137.454 16.5942C137.11 16.1095 136.937 15.544 136.937 14.8977H138.908C138.952 15.3824 139.14 15.781 139.474 16.0933C139.819 16.4057 140.298 16.5619 140.912 16.5619C141.548 16.5619 142.043 16.4111 142.399 16.1095C142.754 15.7971 142.932 15.3986 142.932 14.9138C142.932 14.5368 142.819 14.2298 142.592 13.9928C142.377 13.7558 142.102 13.5727 141.768 13.4434C141.445 13.3142 140.993 13.1741 140.411 13.0233C139.679 12.8294 139.081 12.6355 138.618 12.4416C138.165 12.237 137.777 11.9246 137.454 11.5045C137.131 11.0844 136.969 10.5242 136.969 9.82403C136.969 9.1777 137.131 8.61217 137.454 8.12743C137.777 7.64269 138.23 7.27105 138.812 7.01253C139.393 6.754 140.066 6.62473 140.831 6.62473C141.919 6.62473 142.808 6.89942 143.497 7.44879C144.198 7.98739 144.585 8.73066 144.661 9.6786H142.625C142.592 9.26927 142.399 8.91918 142.043 8.62833C141.688 8.33748 141.219 8.19206 140.637 8.19206C140.11 8.19206 139.679 8.32671 139.345 8.59601C139.011 8.86531 138.844 9.25311 138.844 9.75939C138.844 10.1041 138.946 10.3896 139.151 10.6158C139.366 10.8312 139.636 11.0036 139.959 11.1328C140.282 11.2621 140.724 11.4021 141.284 11.5529C142.027 11.7576 142.63 11.9623 143.093 12.1669C143.567 12.3716 143.966 12.6894 144.289 13.1203C144.623 13.5404 144.79 14.1059 144.79 14.8169C144.79 15.3878 144.634 15.9264 144.321 16.4327C144.02 16.939 143.573 17.3483 142.98 17.6607C142.399 17.9623 141.709 18.1131 140.912 18.1131ZM146.753 13.5404C146.753 12.6248 146.937 11.8222 147.303 11.1328C147.68 10.4326 148.197 9.89404 148.854 9.51702C149.511 9.14 150.265 8.95149 151.116 8.95149C152.193 8.95149 153.082 9.21002 153.782 9.72708C154.493 10.2334 154.972 10.9605 155.22 11.9084H153.233C153.071 11.4668 152.813 11.1221 152.457 10.8743C152.102 10.6265 151.655 10.5027 151.116 10.5027C150.362 10.5027 149.759 10.772 149.306 11.3106C148.865 11.8384 148.644 12.5817 148.644 13.5404C148.644 14.4991 148.865 15.2477 149.306 15.7863C149.759 16.3249 150.362 16.5942 151.116 16.5942C152.183 16.5942 152.888 16.1257 153.233 15.1885H155.22C154.962 16.0933 154.477 16.8151 153.766 17.3537C153.055 17.8815 152.172 18.1454 151.116 18.1454C150.265 18.1454 149.511 17.9569 148.854 17.5799C148.197 17.1921 147.68 16.6535 147.303 15.9641C146.937 15.2639 146.753 14.456 146.753 13.5404ZM159.302 10.3896C159.571 9.93713 159.927 9.58704 160.368 9.33928C160.821 9.08076 161.354 8.95149 161.968 8.95149V10.8581H161.499C160.778 10.8581 160.228 11.0413 159.851 11.4075C159.485 11.7738 159.302 12.4093 159.302 13.3142V18H157.46V9.09691H159.302V10.3896ZM172.225 13.3303C172.225 13.6643 172.203 13.9659 172.16 14.2352H165.358C165.412 14.9461 165.676 15.517 166.15 15.9479C166.624 16.3788 167.205 16.5942 167.895 16.5942C168.886 16.5942 169.586 16.1795 169.995 15.3501H171.983C171.713 16.1688 171.223 16.842 170.512 17.3698C169.812 17.8869 168.939 18.1454 167.895 18.1454C167.044 18.1454 166.279 17.9569 165.6 17.5799C164.932 17.1921 164.404 16.6535 164.017 15.9641C163.64 15.2639 163.451 14.456 163.451 13.5404C163.451 12.6248 163.634 11.8222 164.001 11.1328C164.378 10.4326 164.9 9.89404 165.568 9.51702C166.246 9.14 167.022 8.95149 167.895 8.95149C168.735 8.95149 169.483 9.13462 170.141 9.50087C170.798 9.86711 171.309 10.3842 171.676 11.052C172.042 11.7091 172.225 12.4686 172.225 13.3303ZM170.302 12.7486C170.291 12.07 170.049 11.526 169.575 11.1167C169.101 10.7073 168.514 10.5027 167.814 10.5027C167.178 10.5027 166.634 10.7073 166.182 11.1167C165.729 11.5152 165.46 12.0592 165.374 12.7486H170.302ZM182.601 13.3303C182.601 13.6643 182.58 13.9659 182.537 14.2352H175.734C175.788 14.9461 176.052 15.517 176.526 15.9479C177 16.3788 177.582 16.5942 178.271 16.5942C179.262 16.5942 179.962 16.1795 180.372 15.3501H182.359C182.09 16.1688 181.6 16.842 180.889 17.3698C180.189 17.8869 179.316 18.1454 178.271 18.1454C177.42 18.1454 176.655 17.9569 175.977 17.5799C175.309 17.1921 174.781 16.6535 174.393 15.9641C174.016 15.2639 173.828 14.456 173.828 13.5404C173.828 12.6248 174.011 11.8222 174.377 11.1328C174.754 10.4326 175.276 9.89404 175.944 9.51702C176.623 9.14 177.399 8.95149 178.271 8.95149C179.111 8.95149 179.86 9.13462 180.517 9.50087C181.174 9.86711 181.686 10.3842 182.052 11.052C182.418 11.7091 182.601 12.4686 182.601 13.3303ZM180.679 12.7486C180.668 12.07 180.426 11.526 179.952 11.1167C179.478 10.7073 178.89 10.5027 178.19 10.5027C177.555 10.5027 177.011 10.7073 176.558 11.1167C176.106 11.5152 175.837 12.0592 175.75 12.7486H180.679ZM189.31 8.95149C190.01 8.95149 190.635 9.09691 191.184 9.38776C191.745 9.6786 192.181 10.1095 192.493 10.6804C192.806 11.2513 192.962 11.9407 192.962 12.7486V18H191.136V13.0233C191.136 12.2262 190.937 11.6176 190.538 11.1975C190.14 10.7666 189.596 10.5511 188.906 10.5511C188.217 10.5511 187.667 10.7666 187.258 11.1975C186.859 11.6176 186.66 12.2262 186.66 13.0233V18H184.818V9.09691H186.66V10.1149C186.962 9.74862 187.344 9.46316 187.807 9.25849C188.281 9.05383 188.782 8.95149 189.31 8.95149ZM202.466 10.5996V15.5278C202.466 15.8618 202.541 16.1041 202.692 16.2549C202.853 16.395 203.123 16.465 203.5 16.465H204.631V18H203.177C202.347 18 201.712 17.8061 201.27 17.4183C200.828 17.0305 200.607 16.4004 200.607 15.5278V10.5996H199.557V9.09691H200.607V6.88326H202.466V9.09691H204.631V10.5996H202.466ZM211.338 8.95149C212.016 8.95149 212.619 9.09691 213.147 9.38776C213.686 9.6786 214.106 10.1095 214.408 10.6804C214.72 11.2513 214.876 11.9407 214.876 12.7486V18H213.05V13.0233C213.05 12.2262 212.851 11.6176 212.452 11.1975C212.054 10.7666 211.51 10.5511 210.82 10.5511C210.131 10.5511 209.582 10.7666 209.172 11.1975C208.774 11.6176 208.575 12.2262 208.575 13.0233V18H206.732V6.04304H208.575V10.131C208.887 9.75401 209.28 9.46316 209.754 9.25849C210.239 9.05383 210.767 8.95149 211.338 8.95149ZM218.567 7.91738C218.233 7.91738 217.953 7.80427 217.727 7.57806C217.5 7.35184 217.387 7.07177 217.387 6.73784C217.387 6.40391 217.5 6.12383 217.727 5.89762C217.953 5.67141 218.233 5.5583 218.567 5.5583C218.89 5.5583 219.165 5.67141 219.391 5.89762C219.617 6.12383 219.73 6.40391 219.73 6.73784C219.73 7.07177 219.617 7.35184 219.391 7.57806C219.165 7.80427 218.89 7.91738 218.567 7.91738ZM219.472 9.09691V18H217.63V9.09691H219.472ZM225.526 18.1454C224.826 18.1454 224.195 18.0215 223.635 17.7738C223.086 17.5153 222.65 17.1706 222.326 16.7397C222.003 16.298 221.831 15.8079 221.809 15.2693H223.716C223.748 15.6463 223.926 15.9641 224.249 16.2226C224.583 16.4704 224.998 16.5942 225.493 16.5942C226.01 16.5942 226.409 16.4973 226.689 16.3034C226.98 16.0987 227.125 15.8402 227.125 15.5278C227.125 15.1939 226.964 14.9461 226.641 14.7845C226.328 14.623 225.827 14.4452 225.138 14.2513C224.47 14.0682 223.926 13.8905 223.506 13.7181C223.086 13.5458 222.72 13.2818 222.407 12.9264C222.106 12.5709 221.955 12.1023 221.955 11.5206C221.955 11.0467 222.095 10.6158 222.375 10.228C222.655 9.82941 223.054 9.51702 223.571 9.29081C224.098 9.0646 224.702 8.95149 225.38 8.95149C226.393 8.95149 227.206 9.21002 227.82 9.72708C228.445 10.2334 228.779 10.9282 228.822 11.8115H226.98C226.948 11.4129 226.786 11.0951 226.495 10.8581C226.204 10.6212 225.811 10.5027 225.316 10.5027C224.831 10.5027 224.459 10.5942 224.201 10.7774C223.942 10.9605 223.813 11.2028 223.813 11.5045C223.813 11.7414 223.899 11.9407 224.071 12.1023C224.244 12.2639 224.454 12.3932 224.702 12.4901C224.949 12.5763 225.316 12.6894 225.8 12.8294C226.447 13.0018 226.975 13.1795 227.384 13.3626C227.804 13.535 228.165 13.7935 228.466 14.1382C228.768 14.4829 228.924 14.9407 228.935 15.5117C228.935 16.0179 228.795 16.4704 228.515 16.8689C228.235 17.2675 227.836 17.5799 227.319 17.8061C226.813 18.0323 226.215 18.1454 225.526 18.1454ZM247.888 9.09691L245.125 18H243.186L241.392 11.4237L239.598 18H237.66L234.88 9.09691H236.755L238.613 16.2549L240.503 9.09691H242.426L244.236 16.2226L246.078 9.09691H247.888ZM249.054 13.5081C249.054 12.614 249.237 11.8222 249.603 11.1328C249.98 10.4434 250.487 9.9102 251.122 9.53318C251.769 9.14539 252.48 8.95149 253.255 8.95149C253.955 8.95149 254.564 9.09153 255.081 9.3716C255.609 9.6409 256.029 9.98022 256.341 10.3896V9.09691H258.2V18H256.341V16.675C256.029 17.0951 255.603 17.4452 255.065 17.7253C254.526 18.0054 253.912 18.1454 253.223 18.1454C252.458 18.1454 251.758 17.9515 251.122 17.5637C250.487 17.1652 249.98 16.6158 249.603 15.9156C249.237 15.2047 249.054 14.4021 249.054 13.5081ZM256.341 13.5404C256.341 12.9264 256.212 12.3932 255.954 11.9407C255.706 11.4883 255.377 11.1436 254.968 10.9066C254.559 10.6696 254.117 10.5511 253.643 10.5511C253.169 10.5511 252.727 10.6696 252.318 10.9066C251.909 11.1328 251.575 11.4721 251.316 11.9246C251.068 12.3662 250.945 12.8941 250.945 13.5081C250.945 14.1221 251.068 14.6607 251.316 15.1239C251.575 15.5871 251.909 15.9425 252.318 16.1903C252.738 16.4273 253.18 16.5458 253.643 16.5458C254.117 16.5458 254.559 16.4273 254.968 16.1903C255.377 15.9533 255.706 15.6086 255.954 15.1562C256.212 14.693 256.341 14.1544 256.341 13.5404ZM269.037 9.09691L263.576 22.1849H261.669L263.479 17.8546L259.973 9.09691H262.025L264.529 15.8833L267.131 9.09691H269.037Z" fill="black"/>
</svg>
